<svg xmlns="http://www.w3.org/2000/svg" xmlns:xlink="http://www.w3.org/1999/xlink" viewBox="0 0 87 24"><path d="M 8.04 5.799 C 8.061 5.66 8.132 5.534 8.238 5.443 C 8.345 5.352 8.481 5.302 8.621 5.302 L 13.745 5.302 C 14.677 5.302 15.566 5.366 16.255 5.722 C 16.265 3.125 13.954 1.204 11.279 1.218 L 5.081 1.218 C 4.934 1.225 4.794 1.282 4.685 1.381 C 4.576 1.479 4.504 1.613 4.483 1.758 L 1.902 18.084 C 1.887 18.159 1.889 18.236 1.907 18.31 C 1.925 18.384 1.96 18.453 2.008 18.512 C 2.056 18.571 2.117 18.619 2.186 18.651 C 2.255 18.684 2.33 18.701 2.406 18.701 L 5.996 18.701 Z" fill="rgb(17,25,59)"></path><path d="M 8.224 11.844 L 8.998 6.945 C 9.041 6.683 9.186 6.427 9.522 6.427 L 13.845 6.427 C 14.668 6.434 15.534 6.508 16.174 6.843 C 16.17 7.068 16.154 7.293 16.125 7.516 C 15.938 8.721 15.326 9.819 14.401 10.613 C 13.475 11.406 12.296 11.843 11.077 11.844 Z" fill="rgb(17,25,59)"></path><path d="M 17.23 7.433 C 17.224 7.646 17.205 7.858 17.174 8.069 C 16.954 9.435 16.256 10.678 15.202 11.576 C 14.149 12.474 12.811 12.967 11.427 12.968 L 8.598 12.968 C 8.445 12.968 8.297 13.022 8.181 13.121 C 8.065 13.221 7.988 13.358 7.964 13.509 L 6.588 22.186 C 6.577 22.26 6.582 22.336 6.603 22.408 C 6.623 22.48 6.659 22.547 6.708 22.604 C 6.757 22.661 6.818 22.707 6.886 22.738 C 6.954 22.77 7.028 22.786 7.103 22.787 L 10.133 22.787 C 10.284 22.787 10.429 22.733 10.545 22.637 C 10.66 22.54 10.738 22.406 10.765 22.257 L 11.515 17.554 C 11.537 17.416 11.607 17.289 11.714 17.198 C 11.82 17.107 11.956 17.057 12.096 17.057 L 13.898 17.057 C 15.282 17.056 16.621 16.563 17.674 15.665 C 18.727 14.767 19.426 13.524 19.645 12.158 C 19.96 10.156 18.953 8.336 17.23 7.433 Z M 32.275 14.368 C 33.497 14.368 34.68 13.93 35.608 13.135 C 36.537 12.339 37.15 11.238 37.338 10.029 C 37.733 7.513 35.767 5.315 32.98 5.315 L 28.487 5.315 C 28.402 5.315 28.321 5.344 28.256 5.399 C 28.192 5.453 28.15 5.529 28.137 5.612 L 26.129 18.321 C 26.122 18.367 26.125 18.415 26.138 18.46 C 26.151 18.505 26.173 18.547 26.204 18.582 C 26.234 18.618 26.272 18.647 26.315 18.667 C 26.357 18.686 26.403 18.697 26.45 18.697 L 28.828 18.697 C 28.912 18.698 28.994 18.668 29.058 18.614 C 29.122 18.559 29.165 18.483 29.177 18.4 L 29.767 14.668 C 29.779 14.585 29.821 14.509 29.885 14.454 C 29.95 14.4 30.031 14.37 30.116 14.371 Z M 34.264 9.915 C 34.117 10.846 33.397 11.532 32.021 11.532 L 30.267 11.532 L 30.801 8.146 L 32.53 8.146 C 33.948 8.149 34.412 8.989 34.265 9.918 Z M 47.633 9.317 L 45.377 9.317 C 45.293 9.316 45.211 9.346 45.147 9.4 C 45.083 9.455 45.04 9.531 45.028 9.614 L 44.953 10.082 C 44.953 10.082 43.202 8.169 40.102 9.461 C 38.324 10.202 37.47 11.731 37.107 12.851 C 37.107 12.851 35.954 16.256 38.562 18.13 C 38.562 18.13 40.98 19.932 43.703 18.019 L 43.656 18.317 C 43.649 18.364 43.651 18.411 43.664 18.456 C 43.677 18.501 43.699 18.543 43.73 18.579 C 43.76 18.615 43.798 18.644 43.841 18.663 C 43.883 18.683 43.93 18.693 43.977 18.693 L 46.234 18.693 C 46.319 18.694 46.4 18.665 46.465 18.61 C 46.529 18.556 46.571 18.48 46.584 18.396 L 47.957 9.694 C 47.965 9.647 47.962 9.599 47.949 9.554 C 47.936 9.508 47.913 9.466 47.883 9.43 C 47.852 9.394 47.813 9.366 47.77 9.346 C 47.727 9.327 47.68 9.317 47.633 9.317 Z M 44.315 14.128 C 44.227 14.734 43.922 15.288 43.456 15.686 C 42.991 16.085 42.397 16.301 41.784 16.294 C 41.544 16.297 41.304 16.262 41.075 16.19 C 40.101 15.878 39.546 14.943 39.706 13.929 C 39.794 13.323 40.099 12.769 40.565 12.37 C 41.03 11.971 41.625 11.755 42.238 11.762 C 42.478 11.759 42.717 11.794 42.947 11.866 C 43.925 12.177 44.478 13.113 44.323 14.128 Z M 64.766 14.368 C 65.988 14.367 67.17 13.929 68.097 13.133 C 69.025 12.338 69.638 11.237 69.825 10.029 C 70.22 7.513 68.254 5.315 65.467 5.315 L 60.975 5.315 C 60.891 5.315 60.81 5.344 60.745 5.399 C 60.681 5.453 60.639 5.529 60.626 5.612 L 58.618 18.321 C 58.611 18.367 58.614 18.415 58.627 18.46 C 58.64 18.505 58.662 18.547 58.692 18.583 C 58.723 18.619 58.761 18.647 58.803 18.667 C 58.846 18.687 58.893 18.697 58.94 18.697 L 61.316 18.697 C 61.4 18.698 61.482 18.668 61.546 18.614 C 61.61 18.559 61.652 18.483 61.665 18.4 L 62.254 14.668 C 62.266 14.585 62.308 14.509 62.372 14.454 C 62.437 14.399 62.518 14.37 62.603 14.371 Z M 66.755 9.915 C 66.608 10.846 65.889 11.532 64.512 11.532 L 62.752 11.532 L 63.286 8.146 L 65.013 8.146 C 66.438 8.149 66.901 8.989 66.76 9.918 Z M 80.122 9.317 L 77.866 9.317 C 77.781 9.316 77.7 9.346 77.636 9.4 C 77.572 9.455 77.529 9.531 77.517 9.614 L 77.444 10.082 C 77.444 10.082 75.692 8.169 72.591 9.461 C 70.813 10.202 69.959 11.731 69.597 12.851 C 69.597 12.851 68.443 16.256 71.051 18.13 C 71.051 18.13 73.468 19.932 76.191 18.019 L 76.144 18.317 C 76.137 18.364 76.14 18.411 76.152 18.456 C 76.165 18.502 76.188 18.544 76.219 18.579 C 76.249 18.615 76.287 18.644 76.329 18.664 C 76.372 18.684 76.418 18.694 76.465 18.694 L 78.72 18.694 C 78.804 18.695 78.886 18.665 78.95 18.61 C 79.014 18.556 79.056 18.48 79.069 18.396 L 80.441 9.694 C 80.452 9.624 80.44 9.553 80.407 9.49 C 80.374 9.428 80.321 9.378 80.257 9.348 C 80.215 9.328 80.169 9.318 80.122 9.317 Z M 76.804 14.128 C 76.717 14.734 76.412 15.289 75.946 15.687 C 75.48 16.086 74.885 16.302 74.272 16.295 C 74.034 16.298 73.797 16.263 73.569 16.193 C 72.596 15.88 72.04 14.946 72.2 13.932 C 72.288 13.325 72.593 12.771 73.059 12.373 C 73.524 11.974 74.119 11.758 74.732 11.764 C 74.972 11.762 75.211 11.797 75.441 11.869 C 76.415 12.177 76.967 13.113 76.807 14.128 Z M 55.915 9.533 L 53.195 14.123 L 51.815 9.567 C 51.793 9.495 51.749 9.431 51.688 9.386 C 51.627 9.341 51.553 9.317 51.478 9.317 L 49.024 9.317 C 48.981 9.317 48.939 9.326 48.902 9.345 C 48.864 9.364 48.831 9.392 48.807 9.426 C 48.782 9.461 48.766 9.501 48.76 9.542 C 48.754 9.584 48.759 9.627 48.773 9.667 L 51.246 17.342 L 49.009 20.959 C 48.984 20.999 48.97 21.045 48.969 21.092 C 48.968 21.139 48.979 21.186 49.002 21.227 C 49.025 21.268 49.059 21.302 49.1 21.326 C 49.14 21.349 49.187 21.362 49.234 21.361 L 51.877 21.361 C 51.952 21.361 52.027 21.342 52.093 21.305 C 52.159 21.268 52.214 21.214 52.253 21.149 L 59.164 9.717 C 59.188 9.677 59.202 9.631 59.203 9.585 C 59.204 9.538 59.192 9.492 59.169 9.451 C 59.146 9.41 59.113 9.376 59.072 9.352 C 59.032 9.329 58.986 9.317 58.939 9.317 L 56.296 9.317 C 56.219 9.316 56.143 9.336 56.076 9.373 C 56.009 9.411 55.953 9.466 55.915 9.533 Z M 82.66 5.609 L 80.652 18.317 C 80.644 18.364 80.647 18.411 80.66 18.456 C 80.673 18.502 80.695 18.544 80.726 18.579 C 80.757 18.615 80.795 18.644 80.837 18.663 C 80.88 18.683 80.926 18.694 80.973 18.694 L 83.35 18.694 C 83.435 18.695 83.517 18.666 83.581 18.611 C 83.645 18.556 83.687 18.48 83.7 18.396 L 85.707 5.688 C 85.715 5.642 85.712 5.594 85.699 5.549 C 85.687 5.504 85.664 5.462 85.633 5.426 C 85.603 5.39 85.565 5.361 85.522 5.341 C 85.48 5.321 85.433 5.311 85.386 5.311 L 83.01 5.311 C 82.926 5.31 82.843 5.339 82.779 5.394 C 82.715 5.449 82.672 5.525 82.66 5.609 Z" fill="rgb(17,25,59)"></path></svg>